<?xml version="1.0" standalone="no"?>
<!DOCTYPE svg PUBLIC "-//W3C//DTD SVG 20010904//EN"
 "http://www.w3.org/TR/2001/REC-SVG-20010904/DTD/svg10.dtd">
<svg version="1.0" xmlns="http://www.w3.org/2000/svg"
 width="630.000000pt" height="630.000000pt" viewBox="0 0 630.000000 630.000000"
 preserveAspectRatio="xMidYMid meet">
<metadata>
Created by potrace 1.11, written by Peter Selinger 2001-2013
</metadata>
<g transform="translate(0.000000,630.000000) scale(0.100000,-0.100000)"
fill="#000000" stroke="none">
<path d="M0 3150 l0 -3150 3145 0 3145 0 0 3150 0 3150 -3145 0 -3145 0 0
-3150z m2973 908 c133 -77 270 -157 304 -177 35 -20 63 -39 63 -42 0 -3 -7
-14 -16 -25 -8 -10 -13 -13 -9 -6 11 21 -4 13 -16 -9 -8 -15 -8 -19 0 -15 8 5
8 0 0 -18 -8 -16 -17 -23 -28 -19 -9 3 -123 67 -255 141 -222 126 -239 135
-252 118 -7 -10 -45 -74 -84 -142 -40 -68 -74 -124 -76 -124 -12 0 -113 63
-110 68 39 71 212 370 219 380 5 6 11 12 13 12 3 0 114 -64 247 -142z m-56
-395 c82 -48 165 -96 185 -107 21 -12 40 -27 43 -34 3 -8 -7 -33 -21 -57 -19
-33 -30 -42 -42 -38 -21 8 -364 203 -376 213 -8 8 43 110 56 110 4 0 74 -39
155 -87z m-330 -357 c178 -103 325 -191 328 -196 3 -5 0 -12 -6 -16 -8 -4 -9
-3 -5 4 4 7 5 12 2 12 -3 0 -10 -10 -17 -21 -8 -16 -8 -20 1 -14 7 4 5 -6 -4
-24 -9 -17 -19 -31 -22 -31 -3 0 -2 5 2 12 5 7 3 8 -5 4 -7 -5 -10 -15 -7 -23
6 -14 4 -14 -16 -1 -13 8 -164 94 -335 192 -172 98 -313 184 -313 190 0 17 60
107 68 103 4 -2 152 -88 329 -191z m-1827 -711 c0 -162 -4 -295 -9 -295 -18 0
-103 85 -123 123 -25 50 -35 153 -19 199 11 32 141 268 148 268 2 0 3 -133 3
-295z m1703 -1 c82 -49 97 -62 93 -79 -5 -20 -5 -20 9 -1 20 26 19 12 0 -19
-8 -14 -22 -36 -31 -50 l-15 -26 -97 52 c-141 74 -132 64 -125 147 l6 72 31
-18 c17 -10 75 -45 129 -78z m2137 -1564 l59 0 -36 -62 c-48 -84 -53 -94 -92
-161 -18 -31 -37 -55 -41 -52 -10 6 -70 115 -70 126 0 5 21 42 46 84 32 53 51
75 61 71 8 -3 41 -6 73 -6z"/>
<path d="M3120 3490 c-6 -11 -8 -20 -6 -20 3 0 10 9 16 20 6 11 8 20 6 20 -3
0 -10 -9 -16 -20z"/>
<path d="M2520 2450 c-6 -11 -8 -20 -6 -20 3 0 10 9 16 20 6 11 8 20 6 20 -3
0 -10 -9 -16 -20z"/>
</g>
</svg>
